# xmcd
#
# Track frame offsets: 
#        150
#        14144
#        26706
#        38240
#        51044
#        63937
#        75280
#        87998
#        100390
#        113558
#        125314
#        137700
#        150774
#        163842
#        177194
#        190956
#        203659
#        216223
#        228998
#        241680
#        254840
#        267319
#        279329
#        292604
#        304862
#
# Disc length: 4228 seconds
#
# Revision: 0
# Processed by: cddbd v1.5.2PL0 Copyright (c) Steve Scherf et al.
# Submitted via: ExactAudioCopy v0.99pb3
#
DISCID=51108219
DTITLE=Blind Boy Fuller - Volume 2 [CDA)
DYEAR=2006
DGENRE=Blues
TTITLE0=I Don't Care How Long
TTITLE1=You've Got Something There
TTITLE2=Baby Quite Your Low Down Ways (take 1)
TTITLE3=Baby Quite Your Low Down Ways (take 2)
TTITLE4=It Doesn't Matter Baby
TTITLE5=Black Bottom Blues
TTITLE6=I Crave My Pigmeat
TTITLE7=Big Leg Woman Gets My Pay
TTITLE8=I'm A Stranger Here
TTITLE9=Red's Got The Piccolo Blues
TTITLE10=I Want Some Of You Pie
TTITLE11=Jivin' Big Bill Blues
TTITLE12=Woman You Better Wake Up
TTITLE13=Step It Up And Go
TTITLE14=Worn Out Engine Blues
TTITLE15=Blue And Worried Man
TTITLE16=Passenger Train Woman
TTITLE17=Shake It Baby
TTITLE18=Somebody's Been Talkin'
TTITLE19=Three Ball Blues
TTITLE20=Little Woman You're So Sweet
TTITLE21=Good Feeling blues
TTITLE22=You Can't Hide From The Lord
TTITLE23=Twelve Gates To The City
TTITLE24=Crooked Woman Blues
EXTD=
EXTT0=
EXTT1=
EXTT2=
EXTT3=
EXTT4=
EXTT5=
EXTT6=
EXTT7=
EXTT8=
EXTT9=
EXTT10=
EXTT11=
EXTT12=
EXTT13=
EXTT14=
EXTT15=
EXTT16=
EXTT17=
EXTT18=
EXTT19=
EXTT20=
EXTT21=
EXTT22=
EXTT23=
EXTT24=
PLAYORDER=
